# xmcd CD database file
#
# Track frame offsets:
#	150
#	18430
#	41864
#	66119
#	96548
#	121343
#	139345
#	164814
#	180904
#	198306
#
# Disc length: 2887 seconds
#
# Revision: 0
# Processed by: cddbd v1.5.2PL0 Copyright (c) Steve Scherf et al.
# Submitted via: CDex 1.70beta2
#
DISCID=920b450a
DTITLE=John Lee Hooker - Don't Look Back
DYEAR=1997
DGENRE=Blues
TTITLE0=Dimples
TTITLE1=The Healing Game
TTITLE2=Ain't No Big Thing
TTITLE3=Don't Look Back
TTITLE4=Blues Before Sunrise
TTITLE5=Spellbound
TTITLE6=Travellin' Blues
TTITLE7=I Love You Honey
TTITLE8=Frisco Blues
TTITLE9=Red House
EXTD=YEAR: 1997
EXTT0=
EXTT1=
EXTT2=
EXTT3=
EXTT4=
EXTT5=
EXTT6=
EXTT7=
EXTT8=
EXTT9=
PLAYORDER=
